<svg xmlns="http://www.w3.org/2000/svg" xmlns:xlink="http://www.w3.org/1999/xlink" version="1.1" x="0px" y="0px" viewBox="0 0 90 90" enable-background="new 0 0 90 90" style="fill: #467325;" xml:space="preserve"><g><path d="M37,49.4c-2-0.6-2.5-4.3-2.5-4.5l-4-33.5h31.2L57.6,45L57,44.9L61.1,12h-30L35,44.9c0,0,0.4,3.5,2.1,4L37,49.4z"></path></g><g><path d="M62.2,12H30.1c-0.2,0-0.3-0.1-0.3-0.3v-2c0-0.2,0.1-0.3,0.3-0.3h32.1c0.2,0,0.3,0.1,0.3,0.3v2C62.5,11.9,62.4,12,62.2,12z    M30.4,11.4h31.6V10H30.4V11.4z"></path></g><g><path d="M62.5,9.9H30.4L32,6.3h29.7L62.5,9.9z M31.3,9.3h30.5l-0.6-2.5H32.3L31.3,9.3z"></path></g><g><path d="M52.3,6.8H40.8V4.1h11.5V6.8z M41.3,6.3h10.4V4.7H41.3V6.3z"></path></g><g><path d="M57.1,44.9C57.1,44.9,57.1,44.9,57.1,44.9c-0.7,2.3-1.4,3.8-2.1,4l0.2,0.5c1.2-0.3,2-2.7,2.5-4.5l-0.2,0L57.1,44.9"></path></g><g><path d="M57.6,54.3H34.5v-5.4h23.1V54.3z M35,53.8h22v-4.3H35V53.8z"></path></g><g><path fill="none" stroke="#000000" stroke-width="0.5522" stroke-miterlimit="10" d="M34.7,54"></path></g><g><path d="M27.7,69.4l-0.5-0.1c0.4-2.8,0.5-4.1,0.6-5.7c0.1-1.6,0.3-3.3,0.8-7c0.2-1.4,1.3-2.4,3.3-2.8c1.5-0.3,2.8-0.2,2.9-0.2   l-0.1,0.5c-0.1,0-5.3-0.4-5.6,2.5c-0.5,3.6-0.6,5.4-0.8,7C28.2,65.3,28.1,66.6,27.7,69.4z M34.7,54.3   C34.7,54.3,34.7,54.3,34.7,54.3l0-0.3L34.7,54.3z"></path></g><g><path d="M62.5,86H45.6v-0.6h16.5l2.1-4.9l0.2,0c2.5,0.4,3.4-0.9,3.6-1.2l-3.5-10l0,0c-0.4-2.8-0.5-4.2-0.6-5.7   c-0.1-1.6-0.3-3.3-0.8-7c-0.4-2.9-5.6-2.5-5.6-2.5l-0.1-0.5c0.1,0,1.4-0.1,2.9,0.2c2,0.4,3.2,1.3,3.3,2.8c0.5,3.7,0.6,5.4,0.8,7   c0.1,1.5,0.3,2.9,0.6,5.7l3.6,10.1l0,0.1c0,0-0.3,0.6-0.9,1c-1,0.7-2.2,0.7-3.1,0.6L62.5,86z"></path></g><g><path d="M45.7,86h-16l-2.1-4.9c-1.4,0.3-2.4,0.2-3.2-0.1c-0.6-0.3-0.8-0.7-0.8-0.7l0-0.1l3.5-10.9l0.5,0.1l-3.4,10.8   c0.1,0.2,0.8,0.9,3.5,0.4l0.2,0l2.1,5h15.6V86z"></path></g><g><path d="M35.1,77.4c-0.6,0-1.1-0.5-1.1-1.1v-1.8c0-0.6,0.5-1.1,1.1-1.1s1.1,0.5,1.1,1.1v1.8C36.2,76.9,35.7,77.4,35.1,77.4z    M35.1,73.9c-0.3,0-0.5,0.2-0.5,0.5v1.8c0,0.3,0.2,0.5,0.5,0.5s0.5-0.2,0.5-0.5v-1.8C35.6,74.2,35.4,73.9,35.1,73.9z"></path></g><g><path d="M31.3,77.4c-0.6,0-1.1-0.5-1.1-1.1v-1.8c0-0.6,0.5-1.1,1.1-1.1c0.6,0,1.1,0.5,1.1,1.1v1.8C32.4,76.9,31.9,77.4,31.3,77.4z    M31.3,73.9c-0.3,0-0.5,0.2-0.5,0.5v1.8c0,0.3,0.2,0.5,0.5,0.5c0.3,0,0.5-0.2,0.5-0.5v-1.8C31.9,74.2,31.6,73.9,31.3,73.9z"></path></g><g><path d="M38.8,77.4c-0.6,0-1.1-0.5-1.1-1.1v-1.8c0-0.6,0.5-1.1,1.1-1.1s1.1,0.5,1.1,1.1v1.8C39.9,76.9,39.4,77.4,38.8,77.4z    M38.8,73.9c-0.3,0-0.5,0.2-0.5,0.5v1.8c0,0.3,0.2,0.5,0.5,0.5s0.5-0.2,0.5-0.5v-1.8C39.3,74.2,39.1,73.9,38.8,73.9z"></path></g><g><path d="M42.5,77.4c-0.6,0-1.1-0.5-1.1-1.1v-1.8c0-0.6,0.5-1.1,1.1-1.1s1.1,0.5,1.1,1.1v1.8C43.6,76.9,43.1,77.4,42.5,77.4z    M42.5,73.9c-0.3,0-0.5,0.2-0.5,0.5v1.8c0,0.3,0.2,0.5,0.5,0.5s0.5-0.2,0.5-0.5v-1.8C43.1,74.2,42.8,73.9,42.5,73.9z"></path></g><g><path d="M46.3,77.4c-0.6,0-1.1-0.5-1.1-1.1v-1.8c0-0.6,0.5-1.1,1.1-1.1s1.1,0.5,1.1,1.1v1.8C47.3,76.9,46.9,77.4,46.3,77.4z    M46.3,73.9c-0.3,0-0.5,0.2-0.5,0.5v1.8c0,0.3,0.2,0.5,0.5,0.5c0.3,0,0.5-0.2,0.5-0.5v-1.8C46.8,74.2,46.6,73.9,46.3,73.9z"></path></g><g><path d="M50,77.4c-0.6,0-1.1-0.5-1.1-1.1v-1.8c0-0.6,0.5-1.1,1.1-1.1c0.6,0,1.1,0.5,1.1,1.1v1.8C51.1,76.9,50.6,77.4,50,77.4z    M50,73.9c-0.3,0-0.5,0.2-0.5,0.5v1.8c0,0.3,0.2,0.5,0.5,0.5c0.3,0,0.5-0.2,0.5-0.5v-1.8C50.5,74.2,50.3,73.9,50,73.9z"></path></g><g><path d="M53.7,77.4c-0.6,0-1.1-0.5-1.1-1.1v-1.8c0-0.6,0.5-1.1,1.1-1.1c0.6,0,1.1,0.5,1.1,1.1v1.8C54.8,76.9,54.3,77.4,53.7,77.4z    M53.7,73.9c-0.3,0-0.5,0.2-0.5,0.5v1.8c0,0.3,0.2,0.5,0.5,0.5c0.3,0,0.5-0.2,0.5-0.5v-1.8C54.3,74.2,54,73.9,53.7,73.9z"></path></g><g><path d="M57.5,77.4c-0.6,0-1.1-0.5-1.1-1.1v-1.8c0-0.6,0.5-1.1,1.1-1.1s1.1,0.5,1.1,1.1v1.8C58.5,76.9,58.1,77.4,57.5,77.4z    M57.5,73.9c-0.3,0-0.5,0.2-0.5,0.5v1.8c0,0.3,0.2,0.5,0.5,0.5s0.5-0.2,0.5-0.5v-1.8C58,74.2,57.7,73.9,57.5,73.9z"></path></g><g><path d="M61.2,77.4c-0.6,0-1.1-0.5-1.1-1.1v-1.8c0-0.6,0.5-1.1,1.1-1.1s1.1,0.5,1.1,1.1v1.8C62.3,76.9,61.8,77.4,61.2,77.4z    M61.2,73.9c-0.3,0-0.5,0.2-0.5,0.5v1.8c0,0.3,0.2,0.5,0.5,0.5s0.5-0.2,0.5-0.5v-1.8C61.7,74.2,61.5,73.9,61.2,73.9z"></path></g><g><path d="M26.5,78.8l2-6.7h35.2l2.2,6.4L26.5,78.8z M29,72.7l-1.7,5.6L65.2,78l-1.8-5.3H29z"></path></g><g><path d="M25.1,79.6l2.8-8.2l0.2,0l36.3-0.1l2.9,8.1L25.1,79.6z M28.3,71.9L25.9,79l40.7-0.2l-2.5-7L28.3,71.9z"></path></g><g><path fill="none" stroke="#000000" stroke-width="0.5522" stroke-miterlimit="10" d="M29.4,68.3"></path></g><g><path d="M62.9,69.7H29.5L30.3,58c0-0.1,0-0.7,0.5-1.3c0.7-0.8,1.9-1.2,3.5-1.2H58c1.6,0,2.7,0.4,3.4,1c0.5,0.6,0.6,1.2,0.6,1.3   L62.9,69.7z M30,69.1h32.2l-0.9-11.2l0,0c0,0,0-0.5-0.4-0.9c-0.5-0.6-1.6-0.9-3-0.9H34.4c-3.5,0-3.5,1.9-3.5,2l0,0L30,69.1z"></path></g><g><path d="M63.9,70.7H28.2l1.2-13.2c0,0,0.1-0.7,0.7-1.4c1-1.1,2.6-1.4,3.8-1.4h24.7c1.5,0,2.5,0.5,3,0.9c0.7,0.5,1.1,1.2,1.2,1.9   c0.1,3.2,1.2,12.8,1.2,12.9L63.9,70.7z M28.8,70.2h34.5c-0.2-1.7-1-9.7-1.2-12.6c-0.1-1.1-1.5-2.3-3.7-2.3H33.8   c-3.6,0-3.9,2.2-3.9,2.3L28.8,70.2z"></path></g><g><path d="M55.1,65.6c-1.8,0-3.3-1.5-3.3-3.3h0.6c0,1.5,1.2,2.7,2.7,2.7c1.5,0,2.7-1.2,2.7-2.7h0.6C58.4,64.1,57,65.6,55.1,65.6z"></path></g><g><path d="M55.1,67.5c-2.9,0-5.2-2.3-5.2-5.2h0.6c0,2.5,2.1,4.6,4.6,4.6s4.6-2.1,4.6-4.6h0.6C60.3,65.1,58,67.5,55.1,67.5z"></path></g><g><path d="M58.4,62.3h-0.6c0-1.5-1.2-2.7-2.7-2.7c-1.5,0-2.7,1.2-2.7,2.7h-0.6c0-1.8,1.5-3.3,3.3-3.3C57,59,58.4,60.5,58.4,62.3z"></path></g><g><path d="M38.1,67.4h-3.2v-3.1h3.2V67.4z M35.4,66.9h2.1v-2h-2.1V66.9z"></path></g><g><path d="M42.8,67.4h-3.2v-3.1h3.2V67.4z M40.2,66.9h2.1v-2h-2.1V66.9z"></path></g><g><rect x="36.7" y="62.3" width="2.6" height="0.6"></rect></g><g><path d="M58.5,42.5c-0.5,0-0.9-0.1-0.9-0.1c-0.1,0-0.2-0.2-0.2-0.3s0.2-0.2,0.3-0.2c0.1,0,2.4,0.6,3.1-1.5c0.5-1.4,1.4-5,2.2-8.8   c0.9-4,1.4-7,1.3-7.7c-0.1-1.2-3-2.6-4.1-3.1c-0.1-0.1-0.2-0.2-0.2-0.4c0.1-0.1,0.2-0.2,0.4-0.2c0,0,1.1,0.4,2.1,1   c1.5,0.9,2.3,1.7,2.3,2.5c0.1,1.2-1,6.3-1.3,7.9c-0.8,3.8-1.7,7.4-2.2,8.9c-0.5,1.3-1.5,1.8-2.2,1.9C58.9,42.5,58.7,42.5,58.5,42.5   z"></path></g><g><path fill="none" stroke="#000000" stroke-width="0.5522" stroke-linecap="round" stroke-linejoin="round" stroke-miterlimit="10" d="   M58,39.6"></path></g><g><path d="M58,39.9c-0.1,0-0.3-0.1-0.3-0.3c0-0.2,0.1-0.3,0.3-0.3c0.8,0,1.3-0.4,1.5-1.2c0.3-1.1,1-4.1,1.6-7.1   c0.6-3.3,1-5.7,0.9-6.2c0-0.5-0.8-1.1-2-1.6c-0.1-0.1-0.2-0.2-0.2-0.4c0.1-0.1,0.2-0.2,0.4-0.2c1.9,0.8,2.3,1.6,2.4,2.1   c0.1,0.9-0.7,5.1-0.9,6.4c-0.6,3.1-1.2,6-1.6,7.2C59.6,39.6,58.6,39.8,58,39.9C58,39.9,58,39.9,58,39.9z"></path></g><g><path fill="none" stroke="#000000" stroke-width="0.5522" stroke-linecap="round" stroke-linejoin="round" stroke-miterlimit="10" d="   M60.1,22.8"></path></g><g><rect x="58.2" y="62.3" width="4" height="0.6"></rect></g><g><path fill="none" stroke="#000000" stroke-width="0.5522" stroke-miterlimit="10" d="M58.4,62.6"></path></g><g><rect x="30.4" y="62.3" width="21.8" height="0.6"></rect></g><g><path d="M46.4,44.6c-0.2,0-0.5-0.1-0.7-0.3c-0.2-0.2-0.3-0.5-0.3-0.8c0.2-5,0-22.3,0-23.3c0-0.1-0.1-0.4,0-0.6   c0.1-0.2,0.4-0.4,0.8-0.5l0,0l0,0c0.1,0,0.8,0.1,0.9,0.7c0,0.4,0.1,19.1,0.1,23.7C47.3,44.2,46.9,44.6,46.4,44.6z M46,20L46,20   l0,0.1c0,0.2,0.2,18.2,0,23.4c0,0.2,0,0.3,0.1,0.4c0.1,0.1,0.2,0.1,0.3,0.1c0.2,0,0.3-0.2,0.3-0.6c0-4.8-0.1-23.3-0.1-23.7   c0,0-0.2-0.1-0.4-0.2c-0.2,0-0.3,0.1-0.3,0.2C46,19.8,46,19.9,46,20z"></path></g><g><path d="M37.9,22.2h-5.9c-0.2,0-0.3-0.1-0.3-0.3s0.1-0.3,0.3-0.3h5.9c0.2,0,0.3,0.1,0.3,0.3S38.1,22.2,37.9,22.2z"></path></g><g><rect x="32.8" y="27.9" width="2.2" height="0.6"></rect></g><g><path d="M38.7,35.3h-5.1c-0.2,0-0.3-0.1-0.3-0.3c0-0.2,0.1-0.3,0.3-0.3h5.1c0.2,0,0.3,0.1,0.3,0.3C39,35.2,38.9,35.3,38.7,35.3z"></path></g><g><path d="M36.7,41.3h-2.3c-0.2,0-0.3-0.1-0.3-0.3c0-0.2,0.1-0.3,0.3-0.3h2.3c0.2,0,0.3,0.1,0.3,0.3C36.9,41.2,36.8,41.3,36.7,41.3z"></path></g><g><rect x="54.9" y="65.3" width="0.6" height="1.9"></rect></g></svg>