<svg xmlns="http://www.w3.org/2000/svg" xmlns:xlink="http://www.w3.org/1999/xlink" version="1.1" x="0px" y="0px" viewBox="0 0 15 15" enable-background="new 0 0 15 15" xml:space="preserve"><path fill="#467325" d="M10.533,2.822c-0.551,0.042-0.494,0.444-0.494,0.444H9.984C9.986,3.298,9.988,3.33,9.988,3.362  c0,0.137-0.012,0.271-0.029,0.403l0.08,0.009c0.084,0.508,0.578,0.424,0.578,0.424l2.188,0.479V2.519  C12.805,2.519,11.084,2.78,10.533,2.822z"></path><path fill="#467325" d="M9.984,3.267H8.51c0.004,0.04,0.006,0.081,0.006,0.122c0,0.074-0.008,0.146-0.018,0.217l1.461,0.16  c0.018-0.132,0.029-0.267,0.029-0.403C9.988,3.33,9.986,3.298,9.984,3.267z"></path><path fill="#467325" d="M8.432,2.913c0.016,0.044,0.029,0.089,0.041,0.135l1.404-0.226V2.571c-0.025-0.09-0.055-0.178-0.09-0.264  L8.432,2.843V2.913z"></path><path fill="#467325" d="M8.27,2.61l0.063,0.053l1.26-0.754C9.508,1.766,9.41,1.631,9.303,1.506L8.182,2.502  C8.213,2.536,8.242,2.572,8.27,2.61z"></path><path fill="#467325" d="M8.061,2.388l0.947-1.172c-0.117-0.099-0.24-0.187-0.371-0.264L7.84,2.245  C7.919,2.283,7.993,2.332,8.061,2.388z"></path><path fill="#467325" d="M7.793,2.225l0.363-1.492C8.02,0.687,7.878,0.652,7.733,0.63L7.552,2.157  C7.636,2.17,7.716,2.193,7.793,2.225z"></path><path fill="#467325" d="M9.863,4.2C9.855,4.226,9.848,4.251,9.838,4.276l0.039-0.071L9.863,4.2z"></path><path fill="#467325" d="M8.469,3.744C8.447,3.822,8.42,3.896,8.387,3.967l1.236,0.711l0.215-0.401  C9.848,4.251,9.855,4.226,9.863,4.2L8.469,3.744z"></path><path fill="#467325" d="M9.428,5.062c-0.01,0.013-0.02,0.026-0.029,0.039l0.035-0.035L9.428,5.062z"></path><path fill="#467325" d="M8.275,4.159C8.225,4.229,8.17,4.293,8.107,4.35l0.902,1.14l0.389-0.389c0.01-0.013,0.02-0.026,0.029-0.039  L8.275,4.159z"></path><path fill="#467325" d="M7.337,2.148V0.6C7.154,0.601,6.976,0.62,6.804,0.658l0.324,1.526C7.195,2.165,7.265,2.153,7.337,2.148z"></path><path fill="#467325" d="M6.759,2.374c0.059-0.047,0.123-0.087,0.189-0.12L6.33,0.812C6.303,0.822,6.276,0.835,6.25,0.848  L5.982,1.065L6.759,2.374z"></path><path fill="#467325" d="M6.469,2.663l0.099-0.097C6.583,2.548,6.597,2.53,6.612,2.513L5.623,1.268  C5.565,1.319,5.51,1.373,5.457,1.43l-0.13,0.229L6.469,2.663z"></path><path fill="#467325" d="M6.568,2.566l0.049-0.048L6.612,2.513C6.597,2.53,6.583,2.548,6.568,2.566z"></path><path fill="#467325" d="M4.882,2.555l1.456,0.472C6.361,2.94,6.393,2.858,6.432,2.781L5.03,2.055L4.882,2.555z"></path><path fill="#467325" d="M6.292,3.463C6.291,3.438,6.289,3.414,6.289,3.389c0-0.081,0.008-0.16,0.021-0.236L4.741,2.891  C4.729,2.967,4.719,3.043,4.712,3.122v0.477L6.292,3.463z"></path><path fill="#467325" d="M4.712,3.881l0.169,0.55l0.022-0.008C4.834,4.248,4.782,4.064,4.748,3.874L4.712,3.881z"></path><path fill="#467325" d="M6.279,3.599L4.748,3.874c0.034,0.19,0.086,0.374,0.156,0.549l1.46-0.542L6.279,3.599z"></path><path fill="#467325" d="M5.051,4.78l0.071,0.075C5.104,4.827,5.087,4.798,5.07,4.769L5.051,4.78z"></path><path fill="#467325" d="M6.533,4.205l-0.169-0.24L5.07,4.769c0.017,0.029,0.034,0.059,0.052,0.087l0.416,0.443L6.533,4.205z"></path><path fill="#467325" d="M6.702,4.205"></path><path fill="#467325" d="M6.872,4.431"></path><path fill="#467325" d="M6.683,4.337L6.617,4.304L5.593,5.429C5.768,5.592,5.964,5.73,6.177,5.84l0.675-1.371  C6.792,4.431,6.736,4.387,6.683,4.337z"></path><path fill="#467325" d="M6.925,4.511l-0.552,1.42C6.559,6.008,6.756,6.063,6.96,6.095l0.223-1.487  C7.093,4.587,7.006,4.554,6.925,4.511z"></path><polygon fill="#467325" points="7.337,6.124 7.345,6.124 7.337,6.124 "></polygon><path fill="#467325" d="M7.402,4.632c-0.022,0-0.043-0.002-0.065-0.004v1.496c0.002,0,0.005,0,0.008,0  c0.216,0,0.426-0.027,0.628-0.079L7.596,4.611C7.533,4.624,7.469,4.632,7.402,4.632z"></path><path fill="#467325" d="M7.739,4.431"></path><path fill="#467325" d="M7.94,4.304"></path><path fill="#467325" d="M7.775,4.559l0.387,1.375L8.713,5.68L8.011,4.429C7.938,4.482,7.859,4.525,7.775,4.559z"></path><rect x="6.339" y="3.353" transform="matrix(0.8192 0.5736 -0.5736 0.8192 3.2876 -3.637)" fill="#467325" width="2.145" height="0.085"></rect><rect x="7.371" y="2.238" transform="matrix(0.4518 0.8921 -0.8921 0.4518 7.0167 -4.7983)" fill="#467325" width="0.084" height="2.145"></rect><rect x="7.353" y="2.225" fill="#467325" width="0.085" height="2.364"></rect><path fill="#467325" d="M7.337,2.388c0,0-0.709,0.914-0.212,1.272c0,0,0.445,0.066,0.445-0.253l-0.018-1.02  c0,0-0.065-0.124-0.067-0.163C7.483,2.187,7.337,2.388,7.337,2.388z"></path><rect x="6.604" y="5.374" transform="matrix(0.994 0.1095 -0.1095 0.994 1.1224 -0.6729)" fill="#467325" width="0.169" height="9.022"></rect><rect x="6.961" y="5.482" transform="matrix(0.9987 0.0518 -0.0518 0.9987 0.5238 -0.3517)" fill="#467325" width="0.17" height="8.893"></rect><rect x="3.378" y="9.8" transform="matrix(0.0471 0.9989 -0.9989 0.0471 17.3695 1.5617)" fill="#467325" width="8.977" height="0.169"></rect><rect x="3.835" y="9.717" transform="matrix(0.0742 0.9972 -0.9972 0.0742 17.5638 0.683)" fill="#467325" width="9.158" height="0.168"></rect><rect x="3.689" y="9.773" transform="matrix(0.1268 0.9919 -0.9919 0.1268 16.9225 0.4918)" fill="#467325" width="8.986" height="0.169"></rect><rect x="6.315" y="13.225" fill="#467325" width="2.397" height="0.085"></rect><rect x="6.565" y="10.968" fill="#467325" width="1.763" height="0.085"></rect><rect x="6.575" y="10.875" fill="#467325" width="1.925" height="0.084"></rect><rect x="6.956" y="13.109" fill="#467325" width="1.646" height="0.084"></rect><rect x="6.807" y="8.739" fill="#467325" width="1.234" height="0.085"></rect><g><polygon fill="#467325" points="6.025,6.685 6.702,6.399 8.85,6.42 8.182,6.728  "></polygon><path fill="#467325" d="M8.182,6.77L8.182,6.77L6.024,6.728c-0.02-0.001-0.037-0.015-0.041-0.034   C5.979,6.673,5.99,6.653,6.008,6.646L6.686,6.36c0.005-0.002,0.011-0.004,0.017-0.003l2.149,0.021c0.02,0,0.035,0.015,0.041,0.033   c0.004,0.02-0.006,0.039-0.025,0.048L8.199,6.766C8.193,6.769,8.188,6.77,8.182,6.77z M6.225,6.646l1.947,0.038L8.66,6.461   l-1.95-0.02L6.225,6.646z"></path></g><polygon fill="#467325" points="7.515,14.401 6.877,13.288 6.95,13.246 7.513,14.228 8.041,13.247 8.115,13.287 "></polygon><rect x="6.053" y="13.776" transform="matrix(0.3575 0.9339 -0.9339 0.3575 17.1356 2.73)" fill="#467325" width="1.061" height="0.085"></rect><rect x="8.319" y="13.255" transform="matrix(0.8801 0.4748 -0.4748 0.8801 7.5562 -2.3149)" fill="#467325" width="0.084" height="1.096"></rect><rect x="5.879" y="7.35" transform="matrix(0.3943 0.919 -0.919 0.3943 10.7755 -1.5858)" fill="#467325" width="1.424" height="0.064"></rect><rect x="8.346" y="6.302" transform="matrix(0.8866 0.4626 -0.4626 0.8866 4.2868 -3.0569)" fill="#467325" width="0.063" height="1.824"></rect><path fill="#467325" d="M7.413,4.717c-0.655,0-1.188-0.587-1.188-1.309S6.758,2.1,7.413,2.1C8.066,2.1,8.6,2.687,8.6,3.408  S8.066,4.717,7.413,4.717z M7.413,2.27c-0.562,0-1.018,0.511-1.018,1.139s0.457,1.139,1.018,1.139s1.019-0.511,1.019-1.139  S7.974,2.27,7.413,2.27z"></path><path fill="#467325" d="M7.396,5.485c-1.065,0-1.931-0.932-1.931-2.077s0.866-2.077,1.931-2.077c1.065,0,1.931,0.932,1.931,2.077  S8.461,5.485,7.396,5.485z M7.396,1.5c-0.972,0-1.762,0.856-1.762,1.908s0.79,1.908,1.762,1.908S9.158,4.46,9.158,3.408  S8.367,1.5,7.396,1.5z"></path></svg>