<svg xmlns="http://www.w3.org/2000/svg" xmlns:xlink="http://www.w3.org/1999/xlink" version="1.1" x="0px" y="0px" viewBox="0 0 1068.8 1290.5" enable-background="new 0 0 1068.8 1290.5" xml:space="preserve"><path fill="none" stroke="#467325" stroke-width="16" stroke-miterlimit="10" d="M629.8,608.3c55.3,23.4,92.9,69.9,92.9,123.5  c0,77.1-78.2,139.6-174.6,139.6c-6,0-12-0.2-17.8-0.7"></path><path fill="none" stroke="#467325" stroke-width="16" stroke-miterlimit="10" d="M425.2,831c-31.9-25.3-51.7-60.4-51.7-99.2  c0-48.6,31.1-91.4,78.2-116.4"></path><path fill="none" stroke="#467325" stroke-width="16" stroke-miterlimit="10" d="M548.1,1265.5c0-204.5-51.7-377.2-122.9-434.5"></path><path fill="none" stroke="#467325" stroke-width="16" stroke-miterlimit="10" d="M548.1,1265.5c0-205.3,52.1-378.6,123.8-435.2"></path><path fill="none" stroke="#467325" stroke-width="16" stroke-miterlimit="10" d="M373.5,734.2c15.8,7,33.1,12.2,51.5,15"></path><path fill="none" stroke="#467325" stroke-width="16" stroke-miterlimit="10" d="M572.6,1032.7c0,6.4-11,11.5-24.5,11.5"></path><path fill="none" stroke="#467325" stroke-width="16" stroke-miterlimit="10" d="M523.5,1032.7c0,6.4,11,11.5,24.6,11.5"></path><path fill="none" stroke="#467325" stroke-width="16" stroke-miterlimit="10" d="M691.4,652.1c0,18-49,32.5-109.6,32.5"></path><path fill="none" stroke="#467325" stroke-width="16" stroke-miterlimit="10" d="M632,609.3c1.9-13.7,17.2-25.3,31.1-25.7  c13.9-0.5,27.4,4.1,41.3,4.8c11.6,0.5,24.8-2.8,30.5-12.9c5.7-10,2.7-24.4,11.3-32.1c5.4-4.9,14.5-4.8,19.8,0.2  c6.9,6.4,8.4,19.7,17.7,21c4.9,0.6,9.3-2.7,13.5-5.3c7.9-5,18.7-7.6,26.4-2.3c2.7,1.9,4.7,4.5,7.2,6.7c3.6,3.2,8.1,5.3,12.4,7.3  c11.9,5.5,24.3,11.2,37.4,11.5c11.3,0.3,22.3-3.3,33-6.9c9.2-3.1,20-7.9,21.4-17.5c1.1-7.4-4-14.9-1.8-22.1  c3.6-11.8,23.4-12.5,26.1-24.5c0.7-3.1,0-6.3-0.9-9.3c-5.7-19.1-20.1-35.1-37.8-44.4c-17.6-9.3-38.3-12.2-58.1-10  c-7.1,0.8-14.2,2.2-21.3,2c-10-0.3-19.6-3.7-29.4-5.9c-12.3-2.7-24.9-3.4-37.4-4.1c-12.6-0.7-25.2-1.4-37.8-2.1  c-5.8-0.3-11.6-0.6-17.3,0.3c-8.1,1.4-15.8,5.6-20.8,12.1c-2.8,3.6-4.8,7.8-8.1,11.1c-5.5,5.5-13.7,7.3-20.9,10.2  c-24.1,9.8-39.4,33.4-51,56.7c-11.1,22.2-14.9,47.1-12.9,71.8"></path><path fill="none" stroke="#467325" stroke-width="16" stroke-miterlimit="10" d="M879.6,447.2c15.5-0.5,31.2-11.5,45.9-6.7  c3.6,1.2,7.3,2.6,11.2,2.3c14.1-1.1,18.9-22.4,32.7-25c3.8-0.7,7.7,0.2,11.6,0.3c18.8,0.6,33.1-16.1,43.8-31.5  c7.9-11.4,15.9-23.9,16-37.8c0.1-9-3.1-17.6-4.6-26.4c-2.8-16.7,0.8-34,6.5-49.9c1.1-3,2.2-6.2,1.1-9.2c-1.7-4.7-8.2-5.8-12.7-3.9  c-4.5,2-7.8,6.1-11.3,9.6c-8.8,8.9-20.5,15-32.9,17.1c-10.1,1.7-20.6,0.8-30.6,3.3c-26.1,6.7-42.4,35.2-68.7,41.4  c-7.4,1.8-15.3,1.6-22.3,4.7c-5.1,2.3-9.3,6.1-14.2,8.8c-15.2,8.2-33.7,3.3-51,2.8"></path><path fill="none" stroke="#467325" stroke-width="16" stroke-miterlimit="10" d="M738.7,437.8c3.7-14,9.7-29.3,17.6-41.4  c2.9-4.4,6.2-8.8,10.5-11.8c7.5-5.2,17.1-5.8,25.5-9c8.5-3.2,16.7-11.6,14.1-20.2c-1.9-6.4-9.1-10.3-10.6-16.8  c-0.7-3.2,0.1-6.6,1.2-9.7c6.6-19.2,23.6-36.3,20.7-56.4c-2.9-5.9-11.9-4.9-17.1-0.9c-5.2,4-8.7,10-14.6,13  c-8.1,4.1-17.8,1-26.9,0.9c-14.7-0.2-28.1,7.5-41.3,13.8c-20.8,9.9-43.1,17-65.8,20.9c-3,0.5-6.1,1-8.7,2.5c-3.2,1.8-5.3,5-6.8,8.3  c-2.5,5.5-3.4,11.7-2.6,17.7c1.1,8.7,5.3,18.8-0.6,25.2c-3,3.2-8.2,4.1-12.1,2.1"></path><path fill="none" stroke="#467325" stroke-width="16" stroke-miterlimit="10" d="M569.5,592.2c3.7-9.4,7.5-18.8,11.2-28.2  c2.9-7.2,5.7-14.4,9.4-21.2c2.5-4.6,5.4-9,7-14c1.3-4.2,1.6-8.6,1.9-13c0.5-6.9,1-13.7,1.4-20.6c0.4-5.8,0.8-11.5,1.2-17.3  c0.6-8.7,1.2-17.4,1.8-26.1c2.1-30.3,4.1-60.6,2.2-90.9c2.4,6.9,10,12.9,16.8,15.4"></path><path fill="none" stroke="#467325" stroke-width="16" stroke-miterlimit="10" d="M449.5,616.5c-2.7-18.1-5.9-37.9-15.1-53.8  c-19.3-33.3-63.1-47.6-100.6-39.1s-68.7,36.2-89,68.9"></path><path fill="none" stroke="#467325" stroke-width="16" stroke-miterlimit="10" d="M244.8,592.5c-11.3,18.1-49,28.9-77.6,30.1  c-10.2,0.4-20.5-0.4-30.7,0.9c-10.4,1.4-20.4,5-30.8,6.3s-22-0.2-29.4-7.6c-9.5-9.4-9.2-24.8-6.4-37.8c5.8-26.9,19.1-51.6,33.1-75.3  c5.1-8.6,10.3-17.3,17.4-24.3c8.1-8,18.3-13.4,28.4-18.8c30-16,61.7-32.3,95.7-32c16.5,0.2,32.7,4.3,49.2,5.8  c15.1,1.4,30.4,0.6,45.6,1.2c34.6,1.5,69.7,11.2,96.5,33.2c5.4,4.4,10.6,9.5,13.2,16c1.2,3.1,1.9,6.4,3.5,9.3  c3.2,5.6,9.4,8.5,15,11.7c17.5,9.9,31.9,25.1,40.7,43.2c-6.3-21.8-12.6-45.1-6.1-66.9c2.1-7.2,5.6-14,7-21.4  c4-21.1-9.5-41.1-22.3-58.4c-7.2-9.7-14.9-19.8-26.1-24.5c-5.2-2.2-10.9-3.1-16.6-3.4c-18.9-1.1-38.5,3.8-52.9,16.1  s-22.7,31.1-17.9,49.4"></path><path fill="none" stroke="#467325" stroke-width="16" stroke-miterlimit="10" d="M386.3,400.3c-12.7-18.6-38.3-22.4-60.8-21.9  c-30,0.5-59.8,5.5-89.9,5.6c-30,0.1-61.2-5.1-85.6-22.6c-9.6-6.9-17.9-15.6-27.7-22.3c-17.4-11.9-38.4-17-58.5-23.2  c-17.7-5.4-38.4-16-38.7-34.5c-0.1-6.3,2.4-12.5,5.5-18c9.8-17.3,26.8-30.5,46-35.7c34.4-9.4,71.7,6.2,106.4-1.8  c24.2-5.6,44.3-21.9,67.4-31.1c12-4.8,26.8-7.3,37.1,0.5c8,6,11,16.4,13.4,26.1c5.6,22.7,13.1,49,34.9,57.4  c8.3,3.2,17.6,3.2,26.1,5.7c7.8,2.3,14.9,6.8,21.7,11.3c57.4,37.6,112.4,85,136.7,149.1c3.4,9.1,6.2,18.4,8.6,27.8  c9.8,38.5,13.2,80.1,9.8,119.7"></path><path fill="none" stroke="#467325" stroke-width="16" stroke-miterlimit="10" d="M697.1,306.5c-2.1-7-7.8-15.8-5.3-22.7"></path><path fill="none" stroke="#467325" stroke-width="16" stroke-miterlimit="10" d="M397.8,305.3c-5.1-7-5.2-19.3-2.4-27.5  c2.8-8.2,8.1-15.2,13.5-22c1.3-1.6,2.6-3.4,2.9-5.4c0.7-5-4.7-8.3-8-12c-6.8-7.6-5.6-19.7-0.7-28.6c5-8.9,13-15.6,19.9-23.1  c3.6-3.9,7-8.2,8-13.4c0.7-3.7,0.2-7.6-0.3-11.4c-2.7-21.1-1.6-45.8,15-59.2c6.4-5.2,14.5-8.1,21.2-12.9  c9.9-7.2,16.1-18.3,23.8-27.9c13-16.5,31-29.3,51.4-34.5c20.3-5.2,42.9-2.4,60.5,9c4.5,2.9,8.7,6.4,13.8,8c3.2,1,6.6,1.2,9.9,2  c13.8,3.4,23.3,16.9,25.7,30.9c2.4,14-1.1,28.3-5.7,41.7c-0.4,1.3-0.9,2.7-0.6,4c0.3,1.6,1.7,2.8,2.8,4c8.8,8.7,11.5,22.1,10.1,34.3  "></path><path fill="none" stroke="#467325" stroke-width="16" stroke-miterlimit="10" d="M691.8,283.7c2.2-6.1,4.3-12.3,4.7-18.7  s-1.3-13.3-6-17.8c-5.5-5.4-14.6-6.9-18.5-13.7c-2.4-4.1-2.1-9.2-1.8-14c0.5-7.5,1.1-14.9,1.6-22.4c0.2-3.3,0.3-7.1-2.2-9.2  c-1.5-1.3-3.5-1.7-5.4-2.4c-8.5-3.3-6.6-16.8-5.7-24.4"></path><path fill="none" stroke="#467325" stroke-width="16" stroke-miterlimit="10" d="M818,276.3c2-7.7,10-11.8,17.9-12.6  c7.9-0.8,15.9,0.9,23.8,0c15.2-1.6,28.9-13.2,33-28c0.8-2.8,1.2-5.9,0.1-8.6c-0.7-1.9-2.1-3.4-3.3-5c-7.1-9.9-6.5-24.6,1.4-33.8  c2.7-3.2,6.3-5.9,7.6-9.9c1.5-4.5-0.4-9.3-2.4-13.5c-5-10.5-11.6-22.9-5.5-32.8c3.6-5.9,11-9.3,12.7-15.9c0.9-3.5-0.1-7.3-2-10.3  c-5.3-8.5-16.7-11.4-26.5-9.4c-9.8,2-18.3,7.7-26.5,13.4c-2.2,1.5-4.6,3.2-5.5,5.7c-1,2.8,0,6.1-0.8,9c-1.8,7.2-11.4,7.8-18.7,9.2  c-12.7,2.4-24.4,13.2-24.7,26.1c0,1.6,0.1,3.2-0.7,4.6c-1,1.8-3.1,2.7-5.1,3.3c-7.2,2.5-14.8,5.6-19,12c-4.2,6.5-3.6,15.7,1.4,21.6  c-16.5-6-36.9,2.3-44.6,18.1c-6.1,12.5-4.9,28.6-14.2,39c-5.3,6-13.2,9-20.7,11.7"></path><line fill="none" stroke="#467325" stroke-width="16" stroke-miterlimit="10" x1="632" y1="609.3" x2="630.9" y2="616.8"></line><line fill="none" stroke="#467325" stroke-width="16" stroke-miterlimit="10" x1="449.5" y1="616.5" x2="458.4" y2="611.8"></line></svg>