<svg xmlns="http://www.w3.org/2000/svg" xmlns:xlink="http://www.w3.org/1999/xlink" version="1.1" x="0px" y="0px" viewBox="0 0 100 100" enable-background="new 0 0 100 100" style="fill: #467325;" xml:space="preserve"><g><path d="M85.201,78.953c-0.134-0.527-2.814-10.915-10.243-19.03c2.794-9.78-8.17-14.344-8.39-14.433l2.974-6.166   c0.15-0.311,0.128-0.62-0.054-0.912C69.304,38.119,68.982,38,68.637,38H59v-7h3c0.553,0,1-0.448,1-1v-7c0-0.552-0.447-1-1-1h-9v-4   c0-0.552-0.447-1-1-1H30c-0.553,0-1,0.448-1,1v4h-9c-0.553,0-1,0.448-1,1v7c0,0.552,0.447,1,1,1h4v41c0,0.553,0.447,1,1,1h18.594   c-1.124,3.407-1.419,5.889-1.44,6.088l-0.095,0.859l0.838,0.219c0.619,0.164,10.526,2.723,22.472,2.723   c6.18,0,12.905-0.685,19.171-2.738l0.889-0.291L85.201,78.953z M67.037,40l-2.662,5h-3.13l-3.96-5H67.037z M21,29v-5h9   c0.553,0,1-0.448,1-1v-4h20v4c0,0.552,0.447,1,1,1h9v5h-3H25H21z M26,71V31h31v7h-1.67c-0.376,0-0.722,0.152-0.894,0.487   c-0.171,0.334-0.143,0.708,0.077,1.015l4.39,6.107c-4.047,2.169-6.489,4.703-7.903,7.261V34c0-0.552-0.447-1-1-1s-1,0.448-1,1   v28.63c-2.158,2.819-3.658,5.76-4.684,8.37H26z M44.284,78.438c0.389-2.209,1.763-8.242,5.734-13.816   c0.372,1.209,0.745,1.943,0.762,1.975l1.778-1.145C52.318,64.992,46.85,54,59.741,47h1.142c-1.053,2-3.042,5.775-3.152,8.583   l2.007,0.187c0.088-2.24,1.739-5.387,2.731-7.122c0.933,0.655,2.743,2.203,3.923,4.813l1.831-1.026   C67.032,49.802,65.311,48,64.124,47h1.862c1.25,1,8.401,4.194,7.303,11.008c-1.105-1.055-2.299-1.945-3.592-2.851l-1.151,1.698   c9.286,6.498,13.424,18.303,14.447,21.65C67.352,83.244,48.527,79.418,44.284,78.438z"></path><path d="M33,33c-0.553,0-1,0.448-1,1v33c0,0.553,0.447,1,1,1s1-0.447,1-1V34C34,33.448,33.553,33,33,33z"></path><path d="M42,33c-0.553,0-1,0.448-1,1v33c0,0.553,0.447,1,1,1s1-0.447,1-1V34C43,33.448,42.553,33,42,33z"></path></g></svg>