<svg xmlns="http://www.w3.org/2000/svg" xmlns:xlink="http://www.w3.org/1999/xlink" version="1.1" x="0px" y="0px" viewBox="0 0 256 256" enable-background="new 0 0 256 256" xml:space="preserve"><g><path fill="#467325" d="M179.5,105.1c1,0,2-1,2-2v-14c0-3.5-3-6.5-6.5-6.5h-10.5l-2.5-7.2c-0.2-1-1.5-1.5-2.5-1.2L102,91.7   c-1,0.2-1.8,1.5-1.2,2.5c0.2,0.8,1,1.5,2,1.5c0.2,0,0.5,0,0.5,0l55.5-17l5.2,23.2c0.2,1,1.5,1.5,2.5,1.2s1.5-1.5,1.2-2.5l-2.3-14   h9.3c1.5,0,2.5,1.2,2.5,2.5v14C177.5,104.1,178.5,105.1,179.5,105.1z"></path><path fill="#467325" d="M195.2,127.1c-1,0-2,1-2,2s1,2,2,2c1.5,0,2,0.5,2,2v23.8c0,1.5-0.5,2-2,2h-31.5c-1.5,0-2-0.5-2-2v-19.8   c0-1.5,0.5-2,2-2h23.8c1,0,2-1,2-2v-23.8c0-3.5-2.3-6-6-6H63c-4.8,0-8-3-8-8c0-4.8,3-8,8-8h20l-12,4c-1,0.2-1.5,1.5-1.2,2.5   c0.2,0.8,1,1.2,2,1.2c0.2,0,0.5,0,0.5,0l71.5-23.5c1-0.2,1.5-1.5,1.2-2.5s-1.5-1.5-2.5-1.2L94.8,83.6h-0.2H63.1   c-7,0-11.8,4.8-11.8,11.8v86.8c0,7,4.8,11.8,11.8,11.8h120.5c3.5,0,6-2.2,6-6v-19.8c0-1-1-2-2-2s-2,1-2,2V188c0,1.5-0.5,2-2,2H63.1   c-4.8,0-8-3-8-8v-77.4c2,1.8,4.8,2.8,8,2.8h120.5c1.5,0,2,0.5,2,2v21.8h-21.8c-3.5,0-6,2.2-6,6V157c0,3.5,2.3,6,6,6h31.5   c3.5,0,6-2.2,6-6v-23.8C201.2,129.6,199,127.1,195.2,127.1z"></path><circle fill="#467325" cx="177.5" cy="146.9" r="4"></circle><path fill="#467325" d="M66.2,184.1h59.4c1.1,0,2-0.9,2-2c0-1.1-0.9-2-2-2H66.2c-1.1,0-2,0.9-2,2C64.3,183,65.1,184.1,66.2,184.1z"></path></g></svg>